<?xml version="1.0" encoding="utf-8"?>
<!-- Generator: Adobe Illustrator 19.0.0, SVG Export Plug-In . SVG Version: 6.00 Build 0)  -->
<svg version="1.1" id="Capa_5" xmlns="http://www.w3.org/2000/svg" xmlns:xlink="http://www.w3.org/1999/xlink" x="0px" y="0px"
	 viewBox="0 0 1420 566" style="enable-background:new 0 0 1420 566;" xml:space="preserve">
<style type="text/css">
	.st0{fill:#E63C32;}
	.st1{opacity:0.9;}
	.st2{fill:#FFFFFF;}
	.st3{display:none;fill:none;}
	.st4{fill:#EE413F;}
</style>
<symbol  id="BARRA_MOVIL_3" viewBox="-320 -21 640 42">
	<g id="ui_x5F_staturBar_x5F_android_3_">
		<polygon id="XMLID_703_" class="st0" points="320,-21 -320,-21 -320,-21 -320,21 -320,21 -320,21 320,21 320,21 		"/>
	</g>
	<g id="XMLID_698_" class="st1">
		<polygon id="XMLID_883_" style="fill:none;" points="309,-17.5 233,-17.5 233,5.1 309,5.1 		"/>
		
			<text id="XMLID_882_" transform="matrix(1 0 0 -1 246.7915 -13.6084)" class="st2" style="font-family:'Roboto-Regular'; font-size:25px;">12:30</text>
	</g>
	<g id="XMLID_692_">
		<path id="XMLID_696_" class="st2" d="M185.5-3.2c1,1,1,1.2-0.2,1.7c-1.3,0.5-3.1,0.8-3.5,1.7c-0.4,1,0.5,2.6,0.8,3.9
			c0.4,1.4,0.9,2.7,1.2,4c0.1,0.3-0.3,0.8-0.4,1.2c-0.3-0.3-0.7-0.6-1-0.9c-3.2-3.5-6.4-7.1-9.8-10.4c-1-1-1-1.2,0.2-1.7
			c1.3-0.5,3.1-0.8,3.5-1.7c0.4-1-0.5-2.6-0.8-3.9c-0.4-1.4-0.9-2.7-1.2-4c-0.1-0.3,0.3-0.8,0.4-1.2c0.3,0.3,0.7,0.6,1,0.9
			C179-10.2,182.1-6.6,185.5-3.2z"/>
		<path id="XMLID_693_" class="st2" d="M237.9,3.8c0,2.3-1.4,3.5-3.3,3.5c-9.8,0.1-19.7,0-29.5,0.1c-2.6,0-3.9-1.2-3.8-3.8
			c0.1-2,0.3-4-2.8-3.3c-0.4,0.1-1.4-0.6-1.4-1c-0.1-2.1-0.1-4.2,0-6.3c0-0.4,0.9-1,1.4-1c2,0.2,2.8-0.4,2.9-2.6
			c0.2-3.8,1-4.4,4.4-4.5c4.5-0.1,8.9,0,13.4,0c4.9,0,9.8-0.1,14.8,0c2.7,0,4,1.2,4,3.5C237.9-6.5,237.9-1.4,237.9,3.8z M231.2-5.3
			c-1.4-0.1-2.8,0-4.2,0c-1.4,0-3.2,0.4-4-0.4c-0.8-0.7-0.5-2.5-0.6-3.9c-0.1-1.3-0.3-1.3-1.5-0.7c-4.2,2.2-8.5,4.2-12.8,6.3
			c-0.4,0.2-0.8,0.4-1.1,0.7c0.3,0.3,0.7,0.7,1,0.7c1.4,0.1,2.8,0,4.2,0c1.4,0,3.2-0.4,4,0.4c0.8,0.7,0.5,2.5,0.6,3.9
			c0.1,1.3,0.3,1.3,1.5,0.7c4.2-2.2,8.5-4.2,12.8-6.3c0.4-0.2,0.8-0.4,1.1-0.7C231.9-4.9,231.5-5.3,231.2-5.3z"/>
	</g>
	<g id="XMLID_688_">
		<path id="XMLID_691_" class="st2" d="M128-2.2c-0.9,0.9-1.8,1.8-2.6,2.7c6.9,8.1,22.5,9.7,32,0c-1-0.8-2-1.7-3-2.6
			C146.4,5.1,135.6,4.7,128-2.2z"/>
		<path id="XMLID_690_" class="st2" d="M133.9-8.2c-0.9,1-1.7,1.9-2.6,2.8c3.3,4.8,14.2,6.5,20,0.1c-0.9-0.9-1.8-1.7-2.8-2.7
			C143.8-4.3,138.9-4.2,133.9-8.2z"/>
		<path id="XMLID_689_" class="st2" d="M145.5-11.3c-1.4-1.3-2.8-2.6-4.1-3.9c-1.2,1.2-2.6,2.7-4,4.1C139.3-8.8,143-8.7,145.5-11.3z
			"/>
	</g>
	<polygon id="XMLID_686_" class="st3" points="-320,21 320,21 320,-21 -320,-21 	"/>
</symbol>
<g id="XMLID_853_">
	<path id="XMLID_851_" class="st4" d="M561.2,511.9l28.4-165.6L469.3,229l166.3-24.2L710,54.1l74.4,150.7L950.7,229L830.3,346.3
		l28.4,165.6L710,433.7L561.2,511.9z M710,390.2l97.6,51.3L789,332.8l79-77L758.8,240L710,141.1L661.2,240l-109.1,15.9l79,77
		l-18.6,108.7L710,390.2z"/>
</g>
</svg>
