<?xml version="1.0" encoding="UTF-8" standalone="no"?>
<svg width="45px" height="42px" viewBox="0 0 45 42" version="1.1" xmlns="http://www.w3.org/2000/svg" xmlns:xlink="http://www.w3.org/1999/xlink">
    <!-- Generator: sketchtool 3.8.3 (29802) - http://www.bohemiancoding.com/sketch -->
    <title>0E91CA18-A9D7-47E1-87DA-4783A44F67EB</title>
    <desc>Created with sketchtool.</desc>
    <defs></defs>
    <g id="Web" stroke="none" stroke-width="1" fill="none" fill-rule="evenodd">
        <g id="NOVEDADES" transform="translate(-329.000000, -153.000000)" stroke="#FFFFFF" stroke-width="2" fill="#FFFFFF">
            <g id="ic_adopciones" transform="translate(330.000000, 154.000000)">
                <path d="M15.1433333,18.2523333 C14.1246667,18.2523333 13.296,17.4236667 13.296,16.405 C13.296,15.3863333 14.1246667,14.5576667 15.1433333,14.5576667 C16.162,14.5576667 16.9906667,15.3863333 16.9906667,16.405 C16.9906667,17.4236667 16.1616667,18.2523333 15.1433333,18.2523333 L15.1433333,18.2523333 Z M15.1433333,15.5576667 C14.676,15.5576667 14.296,15.9376667 14.296,16.405 C14.296,16.8723333 14.676,17.2523333 15.1433333,17.2523333 C15.6106667,17.2523333 15.9906667,16.8723333 15.9906667,16.405 C15.9906667,15.9376667 15.6106667,15.5576667 15.1433333,15.5576667 L15.1433333,15.5576667 Z" id="Shape"></path>
                <path d="M12.373,18.0576667 C12.36,18.0576667 12.3466667,18.0573333 12.3336667,18.0563333 C12.0583333,18.035 11.8526667,17.794 11.874,17.519 C12.0693333,15.0203333 14.1203333,14.4936667 15.1756667,14.559 C15.4513333,14.577 15.6603333,14.815 15.6423333,15.0903333 C15.6243333,15.3656667 15.3896667,15.5723333 15.1123333,15.557 C14.898,15.5453333 13.0343333,15.5043333 12.871,17.597 C12.8503333,17.8583333 12.6313333,18.0576667 12.373,18.0576667 L12.373,18.0576667 Z" id="Shape"></path>
                <path d="M18.2843333,34.2383333 C17.6243333,34.2383333 9.20933333,33.9206667 6.72633333,18.3143333 C6.683,18.0416667 6.869,17.7853333 7.14166667,17.742 C7.41333333,17.698 7.67033333,17.8843333 7.714,18.1573333 C10.1103333,33.2206667 18.232,33.2303333 18.3046667,33.2383333 C19.509,33.2383333 20.0483333,32.9343333 20.2903333,32.6796667 C20.5473333,32.409 20.5356667,32.1216667 20.535,32.1096667 C20.5346667,32.101 20.5336667,32.0803333 20.5336667,32.0716667 L20.5336667,30.627 C20.5336667,30.3506667 20.7573333,30.127 21.0336667,30.127 C21.31,30.127 21.5336667,30.3506667 21.5336667,30.627 L21.5336667,32.0556667 C21.5416667,32.21 21.5363333,32.795 21.047,33.3343333 C20.503,33.9343333 19.5833333,34.2383333 18.3143333,34.2383333 L18.2843333,34.2383333 L18.2843333,34.2383333 Z" id="Shape"></path>
                <path d="M13.4026667,2.867 C13.2136667,2.867 13.033,2.75933333 12.9486667,2.57666667 C12.8326667,2.326 12.942,2.02866667 13.1926667,1.913 C17.8523333,-0.241 21.045,0.314333333 21.1786667,0.339 C21.45,0.389 21.6296667,0.65 21.5796667,0.921666667 C21.5296667,1.193 21.2686667,1.37166667 20.9983333,1.32266667 C20.9536667,1.31466667 17.948,0.816333333 13.6123333,2.82066667 C13.5443333,2.852 13.473,2.867 13.4026667,2.867 L13.4026667,2.867 Z" id="Shape"></path>
                <path d="M4.01666667,24.1956667 C3.869,24.1956667 3.75466667,24.1676667 3.68533333,24.1443333 C3.42133333,24.072 3.20433333,23.828 2.905,23.2763333 C2.278,22.1203333 1.30666667,19.5416667 0.664333333,16.8496667 C0.118,14.5606667 -0.371666667,11.4403333 0.397666667,9.57433333 C1.27533333,7.44433333 4.367,5.45566667 6.80633333,4.16266667 C9.369,2.804 12.0653333,1.763 12.6336667,1.724 L12.6336667,1.724 C13.1806667,1.68833333 13.467,1.924 13.611,2.12966667 C14.0203333,2.71433333 13.669,3.621 13.5516667,3.885 L6.073,22.1226667 C5.62333333,23.2016667 5.08966667,23.867 4.48566667,24.1033333 C4.30833333,24.173 4.149,24.1956667 4.01666667,24.1956667 L4.01666667,24.1956667 Z M12.7053333,2.72133333 C12.3616667,2.76266667 9.88033333,3.65866667 7.21933333,5.07566667 C4.009,6.78466667 1.915,8.518 1.32266667,9.95533333 C-0.0816666667,13.361 3.24666667,22.2976667 4.02866667,23.1966667 C4.195,23.188 4.65533333,22.9253333 5.14866667,21.741 L12.6323333,3.492 C12.756,3.21033333 12.8293333,2.85466667 12.7973333,2.723 C12.779,2.72066667 12.7493333,2.718 12.7053333,2.72133333 L12.7053333,2.72133333 Z" id="Shape"></path>
                <path d="M21.1016667,30.6676667 C19.2403333,30.6676667 17.3493333,28.7543333 17.3493333,27.3793333 C17.3493333,25.92 19.257,25.92 21.1016667,25.92 C22.5956667,25.92 24.854,25.92 24.854,27.4126667 C24.854,28.7736667 22.963,30.6676667 21.1016667,30.6676667 L21.1016667,30.6676667 Z M21.1016667,26.92 C20.0056667,26.92 18.3493333,26.92 18.3493333,27.3793333 C18.3493333,28.0943333 19.68,29.6676667 21.1016667,29.6676667 C22.5233333,29.6676667 23.854,28.117 23.854,27.4123333 C23.854,27.2286667 23.4963333,26.92 21.1016667,26.92 L21.1016667,26.92 Z" id="Shape"></path>
                <path d="M21.0323333,39.849 C20.1626667,39.849 19.431,39.54 18.8586667,38.9303333 C17.3436667,37.3176667 17.525,34.1196667 17.5333333,33.9843333 C17.5506667,33.709 17.789,33.5013333 18.063,33.5166667 C18.3386667,33.5336667 18.548,33.771 18.5313333,34.0463333 C18.5296667,34.0753333 18.3693333,36.951 19.5883333,38.247 C19.8553333,38.5306667 20.1666667,38.7123333 20.5323333,38.7956667 L20.5323333,31.5436667 C20.5323333,31.2673333 20.756,31.0436667 21.0323333,31.0436667 C21.3086667,31.0436667 21.5323333,31.2673333 21.5323333,31.5436667 L21.5323333,39.3493333 C21.5323333,39.6253333 21.3083333,39.849 21.0323333,39.849 L21.0323333,39.849 Z" id="Shape"></path>
                <path d="M26.963,18.2523333 C25.9443333,18.2523333 25.1156667,17.4236667 25.1156667,16.405 C25.1156667,15.3863333 25.9443333,14.5576667 26.963,14.5576667 C27.9816667,14.5576667 28.8103333,15.3863333 28.8103333,16.405 C28.8103333,17.4236667 27.9813333,18.2523333 26.963,18.2523333 L26.963,18.2523333 Z M26.963,15.5576667 C26.4956667,15.5576667 26.1156667,15.9376667 26.1156667,16.405 C26.1156667,16.8723333 26.4956667,17.2523333 26.963,17.2523333 C27.4303333,17.2523333 27.8103333,16.8723333 27.8103333,16.405 C27.8103333,15.9376667 27.4303333,15.5576667 26.963,15.5576667 L26.963,15.5576667 Z" id="Shape"></path>
                <path d="M29.7333333,18.0576667 C29.475,18.0576667 29.2556667,17.8586667 29.2353333,17.5966667 C29.0716667,15.502 27.206,15.547 26.993,15.5566667 C26.7173333,15.577 26.4816667,15.3623333 26.465,15.0876667 C26.4483333,14.813 26.6556667,14.5766667 26.9303333,14.5586667 C27.981,14.4906667 30.0366667,15.02 30.232,17.5186667 C30.2533333,17.794 30.0476667,18.0346667 29.7723333,18.056 C29.7593333,18.057 29.7463333,18.0576667 29.7333333,18.0576667 L29.7333333,18.0576667 Z" id="Shape"></path>
                <path d="M23.813,34.2383333 C23.7993333,34.2383333 23.79,34.2366667 23.782,34.238 C22.5223333,34.238 21.603,33.934 21.0593333,33.3343333 C20.57,32.795 20.5646667,32.2096667 20.5726667,32.0556667 L20.5726667,30.627 C20.5726667,30.3506667 20.7963333,30.127 21.0726667,30.127 C21.349,30.127 21.5726667,30.3506667 21.5726667,30.627 L21.5726667,32.0716667 C21.5726667,32.088 21.572,32.104 21.5703333,32.1203333 C21.5706667,32.1216667 21.559,32.409 21.816,32.6796667 C22.058,32.9343333 22.5973333,33.2383333 23.7923333,33.2383333 C24.1323333,33.2343333 32.0076667,33.1483333 34.3926667,18.1573333 C34.436,17.8846667 34.6913333,17.698 34.965,17.742 C35.2376667,17.7853333 35.4233333,18.0416667 35.3803333,18.3143333 C32.8973333,33.918 24.4846667,34.2383333 23.813,34.2383333 L23.813,34.2383333 Z" id="Shape"></path>
                <path d="M28.7033333,2.867 C28.6333333,2.867 28.5616667,2.852 28.494,2.82066667 C24.1206667,0.799 21.139,1.317 21.109,1.32233333 C20.8383333,1.37233333 20.5766667,1.19333333 20.5266667,0.921666667 C20.4766667,0.650333333 20.656,0.389333333 20.9276667,0.339 C21.0613333,0.314333333 24.2546667,-0.241 28.9136667,1.913 C29.1643333,2.02866667 29.2736667,2.326 29.1576667,2.57666667 C29.073,2.75933333 28.8923333,2.867 28.7033333,2.867 L28.7033333,2.867 Z" id="Shape"></path>
                <path d="M38.0896667,24.1956667 C37.9573333,24.1956667 37.798,24.173 37.6206667,24.1036667 C37.0166667,23.8673333 36.4826667,23.2016667 36.0343333,22.1253333 L28.5486667,3.87133333 C28.437,3.62066667 28.086,2.714 28.495,2.12933333 C28.639,1.92366667 28.9253333,1.688 29.4723333,1.72366667 C30.0406667,1.763 32.737,2.80366667 35.2996667,4.16233333 C37.739,5.45533333 40.8306667,7.44433333 41.7083333,9.57433333 C42.4776667,11.4403333 41.988,14.5603333 41.4416667,16.8496667 C40.7993333,19.5416667 39.8283333,22.1203333 39.201,23.276 C38.9016667,23.8276667 38.6846667,24.0713333 38.4206667,24.144 C38.3513333,24.1673333 38.237,24.1956667 38.0896667,24.1956667 L38.0896667,24.1956667 Z M29.3086667,2.723 C29.2766667,2.85466667 29.35,3.20933333 29.4683333,3.47966667 L36.9583333,21.7433333 C37.451,22.9253333 37.9113333,23.188 38.0773333,23.1966667 C38.8593333,22.2976667 42.1876667,13.361 40.7836667,9.95566667 C40.1913333,8.518 38.097,6.785 34.887,5.07566667 C32.2256667,3.659 29.7446667,2.76266667 29.401,2.72133333 C29.357,2.718 29.3266667,2.72066667 29.3086667,2.723 L29.3086667,2.723 Z" id="Shape"></path>
                <path d="M21.074,39.849 C20.7976667,39.849 20.574,39.6253333 20.574,39.349 L20.574,31.5436667 C20.574,31.2673333 20.7976667,31.0436667 21.074,31.0436667 C21.3503333,31.0436667 21.574,31.2673333 21.574,31.5436667 L21.574,38.7956667 C21.9393333,38.7123333 22.251,38.5306667 22.518,38.247 C23.737,36.9513333 23.577,34.0753333 23.575,34.0463333 C23.5583333,33.771 23.7676667,33.5336667 24.0433333,33.5166667 C24.3146667,33.5006667 24.5556667,33.7086667 24.573,33.9843333 C24.5813333,34.1196667 24.7626667,37.3176667 23.2476667,38.9303333 C22.675,39.54 21.9436667,39.849 21.074,39.849 L21.074,39.849 Z" id="Shape"></path>
            </g>
        </g>
    </g>
</svg>