<?xml version="1.0" encoding="UTF-8" standalone="no"?>
<svg width="60px" height="23px" viewBox="0 0 60 23" version="1.1" xmlns="http://www.w3.org/2000/svg" xmlns:xlink="http://www.w3.org/1999/xlink">
    <!-- Generator: sketchtool 3.8.3 (29802) - http://www.bohemiancoding.com/sketch -->
    <title>04B14C2D-983D-4EF4-AEED-B129E54EEE01</title>
    <desc>Created with sketchtool.</desc>
    <defs></defs>
    <g id="Web" stroke="none" stroke-width="1" fill="none" fill-rule="evenodd">
        <g id="ADOPCIONES" transform="translate(-555.000000, -273.000000)" stroke="#E73C33" stroke-width="2" fill="#FFFFFF">
            <path d="M603.653779,266.1202 C604.093396,264.334121 603.653779,262.354125 602.222469,260.966087 C600.116398,258.863617 596.7017,258.863617 594.554734,260.966087 C592.683806,262.833815 592.489557,265.722159 593.920868,267.834835 L568.801367,292.942 C566.695296,291.472312 563.79178,291.707054 561.920853,293.574782 C559.814781,295.677252 559.814781,299.086111 561.920853,301.229406 C563.311269,302.617444 565.294656,303.097134 567.083794,302.658269 C566.644178,304.444347 567.083794,306.424343 568.515105,307.812382 C570.621176,309.914852 574.035874,309.914852 576.18284,307.812382 C578.053768,305.944654 578.248017,303.056309 576.816706,300.943633 L601.977101,275.826262 C604.083173,277.255125 606.986688,277.061208 608.857616,275.19348 C610.963687,273.09101 610.963687,269.682151 608.857616,267.538857 C607.436529,266.1202 605.442918,265.64051 603.653779,266.1202 L603.653779,266.1202 Z" id="ic_bone" transform="translate(585.389234, 284.389234) rotate(-315.000000) translate(-585.389234, -284.389234) "></path>
        </g>
    </g>
</svg>