<?xml version="1.0" encoding="UTF-8" standalone="no"?>
<svg width="47px" height="40px" viewBox="0 0 47 40" version="1.1" xmlns="http://www.w3.org/2000/svg" xmlns:xlink="http://www.w3.org/1999/xlink">
    <!-- Generator: sketchtool 3.8.3 (29802) - http://www.bohemiancoding.com/sketch -->
    <title>ABF2C24F-799C-454B-AB3D-BD6E7A9A3C98</title>
    <desc>Created with sketchtool.</desc>
    <defs></defs>
    <g id="Web" stroke="none" stroke-width="1" fill="none" fill-rule="evenodd">
        <g id="NOVEDADES" transform="translate(-94.000000, -154.000000)">
            <g id="ic_novedades" transform="translate(94.000000, 154.000000)">
                <g id="news" fill="#FFFFFF">
                    <path d="M42.8281525,6.3488563 C42.5583578,2.85395894 39.6303812,0.0920821114 36.0674487,0.0920821114 L6.7831085,0.0920821114 C3.04293255,0.0920821114 0,3.13501466 0,6.87507331 L0,33.1917889 C0,36.9318475 3.04293255,39.9747801 6.7831085,39.9747801 L39.6180645,39.9747801 C43.3582405,39.9747801 46.401173,36.9318475 46.401173,33.1917889 L46.401173,12.3202346 C46.4010557,9.74111437 44.9530792,7.49548387 42.8281525,6.3488563 L42.8281525,6.3488563 Z M39.1777126,33.1917889 C39.1777126,34.9066276 37.782522,36.3019355 36.067566,36.3019355 L6.7831085,36.3019355 C5.06815249,36.3019355 3.67296188,34.9066276 3.67296188,33.1917889 L3.67296188,6.87507331 C3.67296188,5.1602346 5.06815249,3.76492669 6.7831085,3.76492669 L36.067566,3.76492669 C37.782522,3.76492669 39.1777126,5.1602346 39.1777126,6.87507331 L39.1777126,33.1917889 L39.1777126,33.1917889 Z" id="Shape"></path>
                    <path d="M7.37841642,13.8578299 L7.45489736,13.8578299 C7.98334311,13.8578299 8.4116129,13.4295601 8.4116129,12.9009971 L8.4116129,9.52785924 L11.2688563,13.4631085 C11.4490323,13.7109677 11.7366569,13.8578299 12.0431672,13.8578299 L12.1359531,13.8578299 C12.1394721,13.8578299 12.1429912,13.8571261 12.1462757,13.8571261 C12.151085,13.8571261 12.1557771,13.8578299 12.1607038,13.8578299 L12.2371848,13.8578299 C12.7655132,13.8578299 13.1939003,13.4295601 13.1939003,12.9009971 L13.1939003,6.61571848 C13.1939003,6.08727273 12.7655132,5.65888563 12.2371848,5.65888563 L12.1607038,5.65888563 C11.6321408,5.65888563 11.203871,6.08727273 11.203871,6.61571848 L11.203871,9.988739 L8.34674487,6.05348974 C8.16668622,5.8056305 7.87882698,5.65888563 7.57255132,5.65888563 L7.47964809,5.65888563 C7.47612903,5.65888563 7.47284457,5.65958944 7.46932551,5.65958944 C7.46439883,5.65958944 7.45970674,5.65888563 7.45489736,5.65888563 L7.37841642,5.65888563 C6.84997067,5.65888563 6.42170088,6.08727273 6.42170088,6.61571848 L6.42170088,12.9009971 C6.42170088,13.4295601 6.84985337,13.8578299 7.37841642,13.8578299 L7.37841642,13.8578299 Z" id="Shape"></path>
                    <path d="M19.0520821,11.9441642 L16.0678006,11.9441642 L16.0678006,10.6572434 L18.5034604,10.6572434 C19.0317889,10.6572434 19.460176,10.2289736 19.460176,9.70064516 L19.460176,9.62404692 C19.460176,9.09548387 19.0317889,8.66721408 18.5034604,8.66721408 L16.0678006,8.66721408 L16.0678006,7.64891496 L18.9239883,7.64891496 C19.452434,7.64891496 19.8808211,7.22064516 19.8808211,6.69219941 L19.8808211,6.61571848 C19.8808211,6.08727273 19.4525513,5.65888563 18.9239883,5.65888563 L15.0344868,5.65888563 C14.5060411,5.65888563 14.077654,6.08727273 14.077654,6.61571848 L14.077654,12.9009971 C14.077654,13.4295601 14.5060411,13.8578299 15.0344868,13.8578299 L19.0521994,13.8578299 C19.5805279,13.8578299 20.0090323,13.4295601 20.0090323,12.9009971 C20.008915,12.3726686 19.5805279,11.9441642 19.0520821,11.9441642 L19.0520821,11.9441642 Z" id="Shape"></path>
                    <path d="M23.3381818,13.8578299 L23.3969501,13.8578299 C23.3982405,13.8578299 23.3994135,13.8575953 23.4007038,13.8575953 C23.4018768,13.8575953 23.4030499,13.8578299 23.4044575,13.8578299 L23.4538416,13.8578299 C23.8646334,13.8578299 24.2294428,13.5956598 24.3607038,13.2064516 L25.5567155,9.65524927 L26.7470968,13.2053959 C26.8777713,13.5953079 27.2429326,13.8579472 27.6541935,13.8579472 L27.7129619,13.8579472 C27.7142522,13.8579472 27.7153079,13.8577126 27.7167155,13.8577126 C27.7181232,13.8577126 27.7192962,13.8579472 27.7205865,13.8579472 L27.7699707,13.8579472 C28.1799413,13.8579472 28.5443988,13.5967155 28.6760117,13.2084457 L30.8071554,6.92304985 C30.9062757,6.63108504 30.8584164,6.30897361 30.6787097,6.05841642 C30.4991202,5.80774194 30.2095015,5.65900293 29.9012317,5.65900293 L29.8032845,5.65900293 C29.3908504,5.65900293 29.024868,5.92328446 28.895132,6.31472141 L27.7147214,9.87683284 L26.5287977,6.31366569 C26.3987097,5.92269795 26.0329619,5.65900293 25.6209971,5.65900293 L25.4872727,5.65900293 C25.0747214,5.65900293 24.7088563,5.92328446 24.5791202,6.31472141 L23.3987097,9.87683284 L22.2129032,6.31366569 C22.0828152,5.92269795 21.7170674,5.65900293 21.3049853,5.65900293 L21.2071554,5.65900293 C20.8987683,5.65900293 20.6092669,5.80774194 20.4294428,6.05841642 C20.2497361,6.30897361 20.2018768,6.63108504 20.3009971,6.92304985 L22.4321408,13.2084457 C22.5636364,13.5965982 22.9280938,13.8578299 23.3381818,13.8578299 L23.3381818,13.8578299 Z" id="Shape"></path>
                    <path d="M33.9584751,13.8578299 C36.0797654,13.8578299 37.0292082,12.6232258 37.0290909,11.4070381 C37.0437537,9.50956012 35.3921408,9.01043988 34.4052786,8.71225806 C33.3102639,8.38123167 33.2070381,8.24832845 33.2070381,7.97982405 C33.2070381,7.82005865 33.589912,7.64903226 34.1595308,7.64903226 C34.5407625,7.64903226 34.9922581,7.76093842 35.257478,7.92093842 C35.7051026,8.19143695 36.2865689,8.05231672 36.5636364,7.60879765 L36.5987097,7.55260997 C36.7341935,7.33583578 36.7771261,7.07378299 36.7181232,6.82510264 C36.6593548,6.57630499 36.5032258,6.36152493 36.2849267,6.2286217 C35.6993548,5.87190616 34.904868,5.65888563 34.1595308,5.65888563 C32.1266862,5.65888563 31.2167742,6.82451613 31.2167742,7.97982405 C31.2167742,9.82733138 32.7806452,10.3009971 33.8153666,10.6143109 C34.9420528,10.9555425 35.0415249,11.0911437 35.0390616,11.4001173 C35.0390616,11.7214076 34.478827,11.8676833 33.9584751,11.8676833 C33.4529032,11.8676833 32.8982991,11.6518475 32.5782991,11.3305572 C32.3989443,11.1503812 32.1554252,11.0491496 31.9014663,11.0487977 L31.9005279,11.0487977 C31.6469208,11.0487977 31.4032845,11.1496774 31.2239296,11.3291496 L31.1717302,11.3814663 C30.9907331,11.5624633 30.8897361,11.8084457 30.8914956,12.0643988 C30.8932551,12.3204692 30.9975367,12.5651613 31.1808798,12.743695 C31.8871554,13.4309677 32.951437,13.8578299 33.9584751,13.8578299 L33.9584751,13.8578299 Z" id="Shape"></path>
                    <path d="M17.2830499,16.646217 L8.18240469,16.646217 C7.16821114,16.646217 6.34592375,17.4683871 6.34592375,18.4826979 C6.34592375,19.4968915 7.16809384,20.3191789 8.18240469,20.3191789 L17.2829326,20.3191789 C18.2971261,20.3191789 19.1194135,19.4968915 19.1194135,18.4826979 C19.1195308,17.4683871 18.2972434,16.646217 17.2830499,16.646217 L17.2830499,16.646217 Z" id="Shape"></path>
                    <path d="M17.2830499,22.7676246 L8.18240469,22.7676246 C7.16821114,22.7676246 6.34592375,23.589912 6.34592375,24.6041056 C6.34592375,25.6182991 7.16809384,26.4405865 8.18240469,26.4405865 L17.2829326,26.4405865 C18.2971261,26.4405865 19.1194135,25.6184164 19.1194135,24.6041056 C19.1195308,23.589912 18.2972434,22.7676246 17.2830499,22.7676246 L17.2830499,22.7676246 Z" id="Shape"></path>
                    <path d="M17.2830499,28.8892669 L8.18240469,28.8892669 C7.16821114,28.8892669 6.34592375,29.711437 6.34592375,30.7257478 C6.34592375,31.7399413 7.16809384,32.5622287 8.18240469,32.5622287 L17.2829326,32.5622287 C18.2971261,32.5622287 19.1194135,31.7399413 19.1194135,30.7257478 C19.1195308,29.711437 18.2972434,28.8892669 17.2830499,28.8892669 L17.2830499,28.8892669 Z" id="Shape"></path>
                    <path d="M35.9659824,16.3868622 L21.9316129,16.3868622 C21.3445161,16.3868622 20.8683871,16.8629912 20.8683871,17.4499707 L20.8683871,31.7583578 C20.8683871,32.3454545 21.3445161,32.8214663 21.9316129,32.8214663 L35.9659824,32.8214663 C36.5531965,32.8214663 37.0292082,32.3453372 37.0292082,31.7583578 L37.0292082,17.4499707 C37.0292082,16.8628739 36.5531965,16.3868622 35.9659824,16.3868622 L35.9659824,16.3868622 Z" id="Shape"></path>
                </g>
                <g id="zynga-logotype" transform="translate(23.083331, 17.916667)" fill="#E73C33">
                    <path d="M9.12582633,0.0521481481 C9.12582633,0.0521481481 10.0516153,-0.034962963 10.7772176,0.437925926 C11.0401494,0.425481481 11.2525864,0.537777778 11.3903268,0.786666667 C11.5282166,1.03555556 11.7781513,1.63303704 11.5781139,1.99407407 C11.5156676,2.06874074 11.3777778,1.76977778 11.3777778,1.76977778 C11.3777778,1.76977778 11.2776844,2.13096296 11.0900467,2.2677037 C11.1151447,3.01451852 10.8148646,3.53703704 10.7273203,3.71155556 C10.6896732,3.81111111 10.7147712,3.89851852 10.7521195,3.99807407 C10.7897666,4.09762963 11.2903828,5.85259259 11.2652848,6.43762963 C11.2401867,7.02251852 10.940056,7.71955556 10.7022222,7.95614815 C10.7521195,8.44148148 10.5269841,8.85259259 10.4143417,9.0517037 C10.3016993,9.25081481 10.0516153,9.99762963 9.98887021,10.3459259 C9.92627451,10.6946667 9.90132586,11.0681481 9.97647059,11.1801481 C10.0516153,11.2921481 10.3892437,11.6407407 10.3642951,11.814963 C10.339197,11.9891852 9.97647059,12.1882963 9.80123249,12.1882963 C9.62614379,12.1882963 9.26296919,12.0762963 9.17557423,11.8395556 C9.08817927,11.602963 9.07548086,11.1925926 9.13822596,10.9561481 C9.20067227,10.7192593 9.62629318,8.98948148 9.37620915,7.96859259 C8.76309991,8.24237037 7.73706816,8.23022222 7.73706816,8.23022222 C7.73706816,8.23022222 7.56197946,9.13881481 7.3492437,9.66133333 C7.27424837,9.78577778 7.28664799,10.6324444 7.28664799,11.1674074 C7.28664799,11.7026667 7.47428571,12.5365926 7.47428571,12.5365926 C7.47428571,12.5365926 7.73706816,12.7235556 7.69957049,12.9597037 C7.66237162,13.1964444 7.36179272,13.3333333 7.09915966,13.3333333 C6.83652661,13.3333333 6.48619981,13.1342222 6.48619981,12.8105185 C6.48619981,12.486963 6.53594771,11.7525926 6.51099907,11.2173333 C6.48619981,10.6820741 6.49874883,10.3336296 6.41105509,9.99748148 C6.32336134,9.66133333 6.07327731,8.77777778 6.04817927,8.09318519 C5.96063492,8.09318519 5.87309057,8.03096296 5.87309057,8.03096296 C5.87309057,8.03096296 5.46016807,8.50385185 5.17258637,8.77777778 C5.21008403,8.96444444 5.31002801,9.30044444 5.31002801,9.37525926 C5.31002801,9.44992593 5.38532213,9.51214815 5.51036415,9.56192593 C5.63540616,9.612 6.02308123,9.82355556 6.01068161,10.0348148 C5.99813259,10.2465185 5.51021475,10.2838519 5.08489262,10.0971852 C4.98494865,10.0472593 4.62207283,8.8402963 4.57202614,8.67822222 C4.52183007,8.5162963 4.4843324,8.42918519 4.5470775,8.2922963 C4.60952381,8.1557037 4.7847619,7.70755556 4.75981326,7.44592593 C4.73471522,7.18459259 4.24679739,6.77377778 3.92156863,6.77377778 C3.6713352,6.77377778 3.28903828,7.15422222 3.00832866,7.37125926 C2.67055089,7.63288889 2.28287582,8.03096296 2.18278245,8.09318519 C2.08253968,8.1557037 1.29449113,9.57466667 1.14435107,9.98518519 C1.08190476,10.1471111 0.956862745,10.9564444 0.294005602,10.9312593 C-0.0062745098,10.9063704 -0.281605976,10.5826667 0.569187675,9.99762963 C0.785060691,9.50281481 1.0853408,8.98918519 1.10401494,8.88651852 C1.12268908,8.784 1.34797386,7.50503704 1.72339869,6.29125926 C2.09867414,5.07777778 2.65232493,4.49896296 2.75525677,4.41481481 C2.83981326,4.34977778 2.88672269,4.31214815 2.8021662,4.26548148 C2.7179085,4.21896296 1.82647993,3.46251852 1.99544351,1.85688889 C2.02352941,1.67022222 2.1080859,1.71688889 2.1642577,2.14622222 C2.2205789,2.57555556 2.56761905,3.584 3.33714286,3.90148148 C3.41213819,3.92933333 3.96578898,3.50948148 6.78976657,3.304 C6.8085901,2.80918519 6.88373483,2.28637037 6.88373483,2.28637037 C6.88373483,2.28637037 6.68683473,2.13703704 6.65845005,1.83822222 C6.56463119,1.98785185 6.50845938,2.02518519 6.38640523,2.00637037 C6.26464986,1.98785185 6.27376284,1.40918519 6.30214753,0.998222222 C6.33038282,0.587407407 6.80888889,0.409925926 6.98726424,0.391407407 C7.22151261,0.269925926 7.47503268,0.288740741 7.47503268,0.288740741 C7.47503268,0.288740741 7.90603175,-0.146962963 9.12582633,0.0521481481 L9.12582633,0.0521481481 Z" id="Zynga"></path>
                </g>
            </g>
        </g>
    </g>
</svg>