<?xml version="1.0" encoding="UTF-8" standalone="no"?>
<svg width="40px" height="40px" viewBox="0 0 40 40" version="1.1" xmlns="http://www.w3.org/2000/svg" xmlns:xlink="http://www.w3.org/1999/xlink">
    <!-- Generator: sketchtool 3.8.3 (29802) - http://www.bohemiancoding.com/sketch -->
    <title>12E6D980-3CF4-42D2-A965-4539A38681BF</title>
    <desc>Created with sketchtool.</desc>
    <defs></defs>
    <g id="Web" stroke="none" stroke-width="1" fill="none" fill-rule="evenodd">
        <g id="NOVEDADES" transform="translate(-799.000000, -155.000000)" fill="#FFFFFF">
            <g id="ic_user" transform="translate(799.000000, 155.000000)">
                <path d="M32.4473251,27.4555556 L29.9512757,27.4555556 C27.1944856,27.4555556 24.9592593,25.2203292 24.9592593,22.4634568 L24.9592593,20.8598354 C26.0636214,19.5472428 26.8557202,17.9946502 27.3480658,16.3540741 C27.399177,16.0775309 27.6653498,15.9409053 27.8428807,15.7507819 C28.7985185,14.7953086 28.9864198,13.1828807 28.2696296,12.0348148 C28.1720165,11.8605761 27.996214,11.709465 28.0061728,11.4935802 C28.0061728,10.0298765 28.0134979,8.56386831 28.0042798,7.10131687 C27.9651029,5.33547325 27.4604115,3.49860082 26.2223868,2.19102881 C25.2228807,1.1345679 23.8504527,0.505514403 22.4345679,0.236296296 C20.6453498,-0.105020576 18.7734979,-0.0877366255 17.0013992,0.363045267 C15.465679,0.750617284 14.0228807,1.65004115 13.1307819,2.98329218 C12.340823,4.14238683 11.9947325,5.54979424 11.9362963,6.93687243 C11.9144033,8.42609053 11.9312757,9.91901235 11.926749,11.4118519 C11.9607407,11.7106996 11.7072428,11.9129218 11.5927572,12.1603292 C10.9176132,13.3851029 11.2148148,15.0537449 12.2996708,15.9445267 C12.5748971,16.1344856 12.6264198,16.4807407 12.7260905,16.7792593 C13.199177,18.2539095 13.9838683,19.6176955 14.9758848,20.8060082 L14.9758848,22.4634568 C14.9758848,25.2203292 12.7407407,27.4555556 9.98403292,27.4555556 L7.48790123,27.4555556 C7.48790123,27.4555556 2.96411523,28.7031276 0,34.9432099 L0,37.4392593 C0,38.8186008 1.1163786,39.9348148 2.49604938,39.9348148 L37.4394239,39.9348148 C38.8187654,39.9348148 39.9350617,38.8186008 39.9350617,37.4392593 L39.9350617,34.9432099 C36.9711111,28.7036214 32.4473251,27.4555556 32.4473251,27.4555556 L32.4473251,27.4555556 Z" id="Shape"></path>
            </g>
        </g>
    </g>
</svg>