<?xml version="1.0" encoding="utf-8"?>
<!-- Generator: Adobe Illustrator 19.0.0, SVG Export Plug-In . SVG Version: 6.00 Build 0)  -->
<svg version="1.1" id="Capa_2" xmlns="http://www.w3.org/2000/svg" xmlns:xlink="http://www.w3.org/1999/xlink" x="0px" y="0px"
	 viewBox="284 42.1 1420 232.5" style="enable-background:new 284 42.1 1420 232.5;" xml:space="preserve">
<style type="text/css">
	.st0{fill:#E73C33;}
	.st1{fill:#FFFFFF;}
</style>
<g id="XMLID_97_">
	<g id="XMLID_109_">
		<g id="a_7_">
			<path id="XMLID_123_" class="st0" d="M1096.1,235.5c-0.3-1-1.9-2.2-2.9-2.3c-10.8-0.2-21.6-0.1-32.8-0.1c-3,12-5.9,23.8-8.9,35.8
				h54.1C1102.4,257.6,1099.3,246.6,1096.1,235.5z"/>
			<path id="XMLID_122_" class="st0" d="M1077.6,164.3c-4.5,16.7-8.7,32.3-13,48.1h27.3C1087.1,196.6,1082.5,181,1077.6,164.3z"/>
		</g>
		<g id="save_7_">
			<path id="XMLID_119_" class="st0" d="M746.8,124.1c-1-2.5-2.4-3-4.8-3c-14.3,0.1-28.6,0.2-42.9,0c-3.3,0-4.7,1.2-5.9,4
				c-8.5,20.1-17.1,40.1-25.7,60.2c-1.3,3.1-2.7,6.2-4.2,9.5c-1.9-2-3.4-3.7-5.1-5.1c-9.2-7.8-20.1-11.4-31.9-13.3
				c-13.6-2.1-27.2-4.8-40.8-7.3c-4.3-0.8-8.8-1.5-12.8-3c-5.2-1.9-6.2-7-2-10.4c3-2.4,6.9-4.2,10.6-4.7c5.2-0.8,10.6-0.3,15.8-0.1
				c10.4,0.3,15.4,4.7,17.5,14.9c0.3,1.5,0.8,2.9,1.3,4.4h49.8c-0.3-5-0.1-9.8-1.1-14.4c-3.6-18.6-15.7-29.5-32.8-35.6
				c-16.4-5.8-33.5-6.2-50.6-5.6c-12.1,0.4-24,2.3-35.3,7c-18.8,7.9-27.9,23.9-26.6,47.1c0.9,17.1,12.6,31.1,31.1,36
				c11.4,3,23.2,4.7,34.9,7c9.6,1.9,19.2,3.6,28.8,5.8c1.8,0.5,4.1,2.9,4.5,4.8c0.8,3.5,1,7.6-3.1,9.8c-2.1,1.1-4.4,2-6.7,2.8
				c-9.4,3.1-18.8,1.8-28-0.6c-8.9-2.3-12.3-6.9-12.5-16.2c0-1.4-0.2-2.8-0.4-4.3h-50.8c-1.3,14.2,1.2,27.1,10.5,38.1
				c8.3,9.7,18.9,16.8,31.5,17c40.3,0.7,80.6,0.2,120.9,0.2c2.3,0,3.5-0.7,4.3-3c2.7-7.5,5.7-14.9,8.5-22.4c0.7-1.9,1.6-2.9,3.9-2.9
				c15.9,0.1,31.7,0,47.6,0.2c1.2,0,3.1,1.3,3.6,2.5c2.3,5.2,4.2,10.6,6.2,15.9c3.7,9.7,3.7,9.7,13.8,9.7h40.5
				c-0.3-1.2-0.5-2-0.8-2.7C787.2,218.8,767,171.5,746.8,124.1z M731.9,203.6c0,0.3-0.1,0.6-0.1,0.9l0,0h-23
				c-0.1-0.3-0.1-0.6-0.1-0.9v-0.1l0,0l0,0c0-0.1,0-0.2,0-0.3c0-0.2-0.1-0.3-0.1-0.5l0,0l0,0c3.8-10.1,7.6-20.2,11.8-31.1
				c4.1,10.9,8,21,11.8,31.1C732,203,731.9,203.3,731.9,203.6L731.9,203.6L731.9,203.6L731.9,203.6z"/>
			<path id="XMLID_118_" class="st0" d="M1034.2,121.2c-48.6,0-97.2,0-145.8-0.1c-3.6,0-5.2,1.1-6.4,4.4
				c-10.2,28.1-20.6,56.2-31,84.3c-0.5,1.2-1,2.4-1.8,4.3c-0.8-2-1.3-3.2-1.7-4.4c-10.4-28.2-20.9-56.4-31.2-84.6
				c-1.1-3.2-2.6-4.1-5.8-4c-7.9,0.2-15.7,0.1-23.6,0.1h-23.4c0.4,1.4,0.6,2.3,1,3.2c20.3,47.1,40.6,94.3,60.9,141.4
				c1,2.3,2.2,3.2,4.8,3.1c12.6-0.1,25.1-0.2,37.7,0c3.3,0,4.7-1,5.9-4c13.2-31,26.5-61.8,39.7-92.8c5.2-12.1,10.4-24.2,15.6-36.4
				c0.3,0,0.5,0.1,0.8,0.1v132.7h68.4h0.6h0.4h0.9l0,0c0-0.2,0-0.3,0-0.5c-0.1-0.5-0.2-1-0.3-1.6c-0.5-2-1.1-4.1-0.7-5.9
				c2.3-9.8,5.2-19.4,8-29.6h-29.9v-19.5h35.3c3.3-12.1,6.6-23.9,10-36.2h-45.3v-16.9h49.7h0.1c3.5-12.5,7-24.8,10.5-37.3h-3.4
				V121.2z"/>
		</g>
		<path id="XMLID_117_" class="st0" d="M284,212.2c71.9,0,143.6,0,215.2,0c0-6.9,0-13.5,0-20.1c-71.9,0-143.4,0-215.2,0
			C284,198.8,284,205.3,284,212.2z"/>
		<path id="XMLID_116_" class="st0" d="M1497.8,192.2c0,6.9,0,13.5,0,20.1c68.9,0,137.5,0,206.2,0c0-6.7,0-13.3,0-20.1
			C1635,192.2,1566.4,192.2,1497.8,192.2z"/>
		<g id="dog_7_">
			<path id="XMLID_113_" class="st0" d="M1480.3,189.1c0-5.5-1.6-7.3-7.1-7.4c-19-0.1-38-0.1-57,0c-5.1,0-6.6,1.7-6.6,6.8
				c-0.1,6-0.1,12,0,18c0,5.4,1.5,6.8,6.9,6.8c6.6,0,13.1,0,20,0v13.2c0,6.5,0,6.8-6,7.8c-15.7,2.4-30.9-4.2-35-21.1
				c-1.6-6.5-2.3-13.5-1.7-20.2c1.6-17.5,14.2-30.6,33.8-31.3c14.5-0.5,27.3,3.8,38.5,12.7c2.3,1.8,4.2,2.5,6.9,1.1
				c2.8-1.5,3-3.8,3-6.5c0-10.9-0.1-21.7,0-32.6c0-3.3-1.3-5.1-4.2-6.6c-11.3-5.7-23.4-7.9-35.7-9c-25.3-2.1-47.4,5.1-65.3,23.5
				c-3.6,3.8-6.9,7.9-10.5,12c-2.9-9.8-8.9-17.2-16.2-23.8c-10.8-9.7-24.1-11.3-37.8-11.5c-11.1-0.1-22.2,0-33.3,0
				c-12.8,0-23.3,5.5-32,14.4c-4.3,4.4-7.8,9.5-11.8,14.5c-10.7-14.8-25.6-23.3-43.4-26.2c-8.8-1.5-17.8-2.1-26.8-2.3
				c-0.2,0-0.5,0-0.7,0h-0.1c-0.3,0-0.6,0-0.9,0c-14.1-0.3-28.1-0.1-42.3-0.1l0,0c0.8,2.3,1.8,4.3,2.3,6.5
				c3.9,13.7,7.8,27.4,11.7,41.1c8.5,30,16.9,60.1,25.3,90.2c0.9,3.4,1.9,6.9-1.3,9.9c-0.2,0.1-0.3,0.3-0.5,0.4h1.2
				c29.8-0.1,56.4-7.7,75.6-33.3c1,1.8,1.9,3.2,2.7,4.6c5.1,8.8,11.6,16.2,20.6,21.3c10.5,5.9,22.3,7.1,33.8,7.6
				c10.9,0.5,22.1-0.7,33-2.3c16.6-2.6,29.7-10.5,35.7-27.4c0.6-1.8,1.7-3.5,2.9-6c1.8,2.7,3.1,4.8,4.6,6.6
				c17.9,22.6,41.4,31.3,69.8,28.6c14.8-1.4,28.7-5.4,42-12c3.9-1.9,5.8-4.2,5.7-8.8C1480.3,228.6,1480.4,208.9,1480.3,189.1z
				 M1196,203.8c-2,16.7-17.5,29.6-37.1,26.2v-68.9c8.2,0.1,16.5-1.2,24.7,2c6.1,2.5,10.2,7.1,11,13.2
				C1195.9,185.4,1197,194.8,1196,203.8z"/>
			<path id="XMLID_112_" class="st0" d="M1316.1,98.2c6.7-5.9,9.6-15.9,8.8-25.6c-0.8-11.2-6.5-22-16.8-25.7
				c-10.3-3.7-21.4-1-28.8,6.3c-9.8,9.7-9.2,29.3-3.5,38.7C1284.4,105.5,1302.2,110.6,1316.1,98.2z"/>
			<path id="XMLID_111_" class="st0" d="M1230.6,122.3c14.5,1.3,29.7-11.4,27.7-26c0.3-13.4-9.9-30.9-24.2-32.9
				c-14.1-2-28.6,7.1-30.6,22.2c-1.4,10.8,3.6,19.7,9.7,27.9C1217.3,119.1,1223.9,121.7,1230.6,122.3z"/>
			<path id="XMLID_110_" class="st0" d="M1370.9,122.5c12.7-3.8,21.3-17.4,22.2-32.3c0.8-13.7-11.3-25-24.5-25.6c-0.3,0-0.6,0-0.9,0
				c-7.3-0.1-14.5,3-19.5,8.2c-9,9.4-13.7,24.5-7.6,36.5C1346.2,120.3,1359.1,126,1370.9,122.5z"/>
		</g>
	</g>
	<g id="XMLID_93_">
		<g id="a_6_">
			<path id="XMLID_108_" class="st1" d="M1096.1,235.5c-0.3-1-1.9-2.2-2.9-2.3c-10.8-0.2-21.6-0.1-32.8-0.1c-3,12-5.9,23.8-8.9,35.8
				h54.1C1102.4,257.6,1099.3,246.6,1096.1,235.5z"/>
			<path id="XMLID_107_" class="st1" d="M1077.6,164.3c-4.5,16.7-8.7,32.3-13,48.1h27.3C1087.1,196.6,1082.5,181,1077.6,164.3z"/>
		</g>
		<g id="save_6_">
			<path id="XMLID_104_" class="st1" d="M746.8,124.1c-1-2.5-2.4-3-4.8-3c-14.3,0.1-28.6,0.2-42.9,0c-3.3,0-4.7,1.2-5.9,4
				c-8.5,20.1-17.1,40.1-25.7,60.2c-1.3,3.1-2.7,6.2-4.2,9.5c-1.9-2-3.4-3.7-5.1-5.1c-9.2-7.8-20.1-11.4-31.9-13.3
				c-13.6-2.1-27.2-4.8-40.8-7.3c-4.3-0.8-8.8-1.5-12.8-3c-5.2-1.9-6.2-7-2-10.4c3-2.4,6.9-4.2,10.6-4.7c5.2-0.8,10.6-0.3,15.8-0.1
				c10.4,0.3,15.4,4.7,17.5,14.9c0.3,1.5,0.8,2.9,1.3,4.4h49.8c-0.3-5-0.1-9.8-1.1-14.4c-3.6-18.6-15.7-29.5-32.8-35.6
				c-16.4-5.8-33.5-6.2-50.6-5.6c-12.1,0.4-24,2.3-35.3,7c-18.8,7.9-27.9,23.9-26.6,47.1c0.9,17.1,12.6,31.1,31.1,36
				c11.4,3,23.2,4.7,34.9,7c9.6,1.9,19.2,3.6,28.8,5.8c1.8,0.5,4.1,2.9,4.5,4.8c0.8,3.5,1,7.6-3.1,9.8c-2.1,1.1-4.4,2-6.7,2.8
				c-9.4,3.1-18.8,1.8-28-0.6c-8.9-2.3-12.3-6.9-12.5-16.2c0-1.4-0.2-2.8-0.4-4.3h-50.8c-1.3,14.2,1.2,27.1,10.5,38.1
				c8.3,9.7,18.9,16.8,31.5,17c40.3,0.7,80.6,0.2,120.9,0.2c2.3,0,3.5-0.7,4.3-3c2.7-7.5,5.7-14.9,8.5-22.4c0.7-1.9,1.6-2.9,3.9-2.9
				c15.9,0.1,31.7,0,47.6,0.2c1.2,0,3.1,1.3,3.6,2.5c2.3,5.2,4.2,10.6,6.2,15.9c3.7,9.7,3.7,9.7,13.8,9.7h40.5
				c-0.3-1.2-0.5-2-0.8-2.7C787.2,218.8,767,171.5,746.8,124.1z M731.9,203.6c0,0.3-0.1,0.6-0.1,0.9l0,0h-23
				c-0.1-0.3-0.1-0.6-0.1-0.9v-0.1l0,0l0,0c0-0.1,0-0.2,0-0.3c0-0.2-0.1-0.3-0.1-0.5l0,0l0,0c3.8-10.1,7.6-20.2,11.8-31.1
				c4.1,10.9,8,21,11.8,31.1C732,203,731.9,203.3,731.9,203.6L731.9,203.6L731.9,203.6L731.9,203.6z"/>
			<path id="XMLID_103_" class="st1" d="M1034.2,121.2c-48.6,0-97.2,0-145.8-0.1c-3.6,0-5.2,1.1-6.4,4.4
				c-10.2,28.1-20.6,56.2-31,84.3c-0.5,1.2-1,2.4-1.8,4.3c-0.8-2-1.3-3.2-1.7-4.4c-10.4-28.2-20.9-56.4-31.2-84.6
				c-1.1-3.2-2.6-4.1-5.8-4c-7.9,0.2-15.7,0.1-23.6,0.1h-23.4c0.4,1.4,0.6,2.3,1,3.2c20.3,47.1,40.6,94.3,60.9,141.4
				c1,2.3,2.2,3.2,4.8,3.1c12.6-0.1,25.1-0.2,37.7,0c3.3,0,4.7-1,5.9-4c13.2-31,26.5-61.8,39.7-92.8c5.2-12.1,10.4-24.2,15.6-36.4
				c0.3,0,0.5,0.1,0.8,0.1v132.7h68.4h0.6h0.4h0.9l0,0c0-0.2,0-0.3,0-0.5c-0.1-0.5-0.2-1-0.3-1.6c-0.5-2-1.1-4.1-0.7-5.9
				c2.3-9.8,5.2-19.4,8-29.6h-29.9v-19.5h35.3c3.3-12.1,6.6-23.9,10-36.2h-45.3v-16.9h49.7h0.1c3.5-12.5,7-24.8,10.5-37.3h-3.4
				V121.2z"/>
		</g>
		<path id="XMLID_102_" class="st1" d="M284,212.2c71.9,0,143.6,0,215.2,0c0-6.9,0-13.5,0-20.1c-71.9,0-143.4,0-215.2,0
			C284,198.8,284,205.3,284,212.2z"/>
		<path id="XMLID_101_" class="st1" d="M1497.8,192.2c0,6.9,0,13.5,0,20.1c68.9,0,137.5,0,206.2,0c0-6.7,0-13.3,0-20.1
			C1635,192.2,1566.4,192.2,1497.8,192.2z"/>
		<g id="dog_6_">
			<path id="XMLID_98_" class="st1" d="M1480.3,189.1c0-5.5-1.6-7.3-7.1-7.4c-19-0.1-38-0.1-57,0c-5.1,0-6.6,1.7-6.6,6.8
				c-0.1,6-0.1,12,0,18c0,5.4,1.5,6.8,6.9,6.8c6.6,0,13.1,0,20,0v13.2c0,6.5,0,6.8-6,7.8c-15.7,2.4-30.9-4.2-35-21.1
				c-1.6-6.5-2.3-13.5-1.7-20.2c1.6-17.5,14.2-30.6,33.8-31.3c14.5-0.5,27.3,3.8,38.5,12.7c2.3,1.8,4.2,2.5,6.9,1.1
				c2.8-1.5,3-3.8,3-6.5c0-10.9-0.1-21.7,0-32.6c0-3.3-1.3-5.1-4.2-6.6c-11.3-5.7-23.4-7.9-35.7-9c-25.3-2.1-47.4,5.1-65.3,23.5
				c-3.6,3.8-6.9,7.9-10.5,12c-2.9-9.8-8.9-17.2-16.2-23.8c-10.8-9.7-24.1-11.3-37.8-11.5c-11.1-0.1-22.2,0-33.3,0
				c-12.8,0-23.3,5.5-32,14.4c-4.3,4.4-7.8,9.5-11.8,14.5c-10.7-14.8-25.6-23.3-43.4-26.2c-8.8-1.5-17.8-2.1-26.8-2.3
				c-0.2,0-0.5,0-0.7,0h-0.1c-0.3,0-0.6,0-0.9,0c-14.1-0.3-28.1-0.1-42.3-0.1l0,0c0.8,2.3,1.8,4.3,2.3,6.5
				c3.9,13.7,7.8,27.4,11.7,41.1c8.5,30,16.9,60.1,25.3,90.2c0.9,3.4,1.9,6.9-1.3,9.9c-0.2,0.1-0.3,0.3-0.5,0.4h1.2
				c29.8-0.1,56.4-7.7,75.6-33.3c1,1.8,1.9,3.2,2.7,4.6c5.1,8.8,11.6,16.2,20.6,21.3c10.5,5.9,22.3,7.1,33.8,7.6
				c10.9,0.5,22.1-0.7,33-2.3c16.6-2.6,29.7-10.5,35.7-27.4c0.6-1.8,1.7-3.5,2.9-6c1.8,2.7,3.1,4.8,4.6,6.6
				c17.9,22.6,41.4,31.3,69.8,28.6c14.8-1.4,28.7-5.4,42-12c3.9-1.9,5.8-4.2,5.7-8.8C1480.3,228.6,1480.4,208.9,1480.3,189.1z
				 M1196,203.8c-2,16.7-17.5,29.6-37.1,26.2v-68.9c8.2,0.1,16.5-1.2,24.7,2c6.1,2.5,10.2,7.1,11,13.2
				C1195.9,185.4,1197,194.8,1196,203.8z"/>
			<path id="XMLID_96_" class="st1" d="M1316.1,98.2c6.7-5.9,9.6-15.9,8.8-25.6c-0.8-11.2-6.5-22-16.8-25.7
				c-10.3-3.7-21.4-1-28.8,6.3c-9.8,9.7-9.2,29.3-3.5,38.7C1284.4,105.5,1302.2,110.6,1316.1,98.2z"/>
			<path id="XMLID_95_" class="st1" d="M1230.6,122.3c14.5,1.3,29.7-11.4,27.7-26c0.3-13.4-9.9-30.9-24.2-32.9
				c-14.1-2-28.6,7.1-30.6,22.2c-1.4,10.8,3.6,19.7,9.7,27.9C1217.3,119.1,1223.9,121.7,1230.6,122.3z"/>
			<path id="XMLID_94_" class="st1" d="M1370.9,122.5c12.7-3.8,21.3-17.4,22.2-32.3c0.8-13.7-11.3-25-24.5-25.6c-0.3,0-0.6,0-0.9,0
				c-7.3-0.1-14.5,3-19.5,8.2c-9,9.4-13.7,24.5-7.6,36.5C1346.2,120.3,1359.1,126,1370.9,122.5z"/>
		</g>
	</g>
</g>
</svg>
