<?xml version="1.0" encoding="UTF-8" standalone="no"?>
<svg width="29px" height="27px" viewBox="0 0 29 27" version="1.1" xmlns="http://www.w3.org/2000/svg" xmlns:xlink="http://www.w3.org/1999/xlink">
    <!-- Generator: sketchtool 3.8.3 (29802) - http://www.bohemiancoding.com/sketch -->
    <title>544AC647-B0E4-4C6F-9FCE-A6D30A874523</title>
    <desc>Created with sketchtool.</desc>
    <defs></defs>
    <g id="Web" stroke="none" stroke-width="1" fill="none" fill-rule="evenodd">
        <g id="NOVEDADES" transform="translate(-657.000000, -358.000000)" fill="#E73C33">
            <g id="Group-2" transform="translate(209.000000, 326.000000)">
                <g id="like" transform="translate(448.000000, 32.000000)">
                    <g id="Capa_1">
                        <g id="Group">
                            <path d="M28.7126,11.1566 C28.1222,13.6598 26.7536,15.9404 24.7586,17.7476 L14.513,26.8886 L4.4432,17.75 C2.4446,15.9392 1.0766,13.6592 0.4856,11.156 C0.0608,9.3578 0.2354,8.342 0.236,8.3354 L0.245,8.2748 C0.635,3.8834 3.6836,0.6956 7.4948,0.6956 C10.307,0.6956 12.7826,2.4236 13.9574,5.2046 L14.51,6.5144 L15.0626,5.2046 C16.2188,2.4662 18.8252,0.6962 21.704,0.6962 C25.5146,0.6962 28.5638,3.884 28.9616,8.3324 C28.9628,8.342 29.1374,9.3584 28.7126,11.1566 Z" id="love"></path>
                        </g>
                    </g>
                </g>
            </g>
        </g>
    </g>
</svg>